<svg version="1.1" id="Capa_1" xmlns="http://www.w3.org/2000/svg" xmlns:xlink="http://www.w3.org/1999/xlink" x="0px"
     y="0px"
     class="w-10 h-10 fill-current" viewBox="0 0 285 241" enable-background="new 0 0 285 241" xml:space="preserve">
        <path d="M28.631,54.723h39.054c19.096,0,33.238,3.667,42.424,11.002c13.679,10.838,20.518,27.82,20.518,50.948
            c0,23.987-5.981,41.334-17.941,52.039c-5.419,4.824-11.482,8.227-18.189,10.209c-6.708,1.982-15.611,2.974-26.713,2.974H25.657
            l13.58-10.407V66.122L28.631,54.723z M31.803,190.023l-1.487-2.676h36.278c17.842,0,31.387-2.479,40.64-7.435
            c19.889-10.571,29.835-31.025,29.835-61.356c0-20.286-4.46-35.352-13.381-45.199l-3.965-4.361c-0.133-0.132-0.53-0.595-1.189-1.388
            c14.009,8.789,21.014,25.607,21.014,50.453c0,26.103-6.938,45.333-20.815,57.688c-10.64,9.516-28.019,14.273-52.138,14.273H31.803z
             M58.665,63.049v111.214h5.452V69.591c3.435-0.528,6.575-0.793,9.417-0.793c5.417,0,9.697,0.545,12.836,1.635
            c3.138,1.091,6.294,3.09,9.466,5.997c-7.005-3.304-14.506-4.956-22.5-4.956c-1.719,0-3.965,0.133-6.74,0.396v102.393
            c7.4,0,13.018-0.611,16.851-1.834c3.832-1.223,7.467-3.584,10.903-7.088c9.581-9.713,14.373-26.034,14.373-48.965
            c0-22.401-5.188-37.699-15.562-45.893c-6.279-4.956-16.223-7.434-29.835-7.434H58.665z"/>
    <path d="M248.58,66.122v105.366l13.579,10.407h-42.126c-11.102,0-20.006-0.991-26.713-2.974
            s-12.77-5.385-18.189-10.209c-11.959-10.705-17.939-28.052-17.939-52.039c0-23.128,6.838-40.11,20.518-50.948
            c9.186-7.335,23.326-11.002,42.424-11.002h39.053L248.58,66.122z M221.223,190.023c-24.119,0-41.498-4.758-52.137-14.273
            c-13.877-12.355-20.816-31.585-20.816-57.688c0-24.845,7.006-41.664,21.014-50.453c-0.66,0.793-1.057,1.256-1.189,1.388
            l-3.965,4.361c-8.92,9.847-13.381,24.914-13.381,45.199c0,30.331,9.945,50.785,29.836,61.356c9.252,4.956,22.797,7.435,40.639,7.435
            h36.278l-1.487,2.676H221.223z M224.494,63.049c-13.613,0-23.557,2.478-29.836,7.434c-10.373,8.194-15.563,23.492-15.563,45.893
            c0,22.931,4.793,39.252,14.373,48.965c3.438,3.504,7.072,5.865,10.904,7.088s9.449,1.834,16.85,1.834V71.871
            c-2.775-0.263-5.021-0.396-6.74-0.396c-7.994,0-15.496,1.652-22.5,4.956c3.172-2.907,6.328-4.906,9.465-5.997
            c3.141-1.09,7.42-1.635,12.838-1.635c2.842,0,5.98,0.265,9.416,0.793v104.672h5.451V63.049H224.494z"/>
    </svg>
